# xmcd
#
# Track frame offsets:
#	150
#	12396
#	25826
#	45494
#	62017
#	78428
#	94435
#	122953
#	141412
#	154438
#	171602
#	184711
#	201081
#	237531
#	254723
#	282224
#	302627
#	318244
#
# Disc length: 4450 seconds
#
# Revision: 0
# Processed by: cddbd v1.5.1PL2 Copyright (c) Steve Scherf et al.
# Submitted via: dBpowerAMP V4.0
#
DISCID=0e116012
DTITLE=Variuos Aritist - Odies
DYEAR=2004
DGENRE=Soul
TTITLE0=One Love (People Get Ready)
TTITLE1=Rock the boat
TTITLE2=Should I Say Yes
TTITLE3=Kingston Town
TTITLE4=What's Love Got to do with It
TTITLE5=Celebration
TTITLE6=True
TTITLE7=Buffalo Soldier
TTITLE8=Red Red Wine
TTITLE9=who's that girl
TTITLE10=That's the Way (I Like It)
TTITLE11=La Isla Bonita
TTITLE12=Tonight Is The Night that you
TTITLE13=Who's That Girl
TTITLE14=There It Is (Extended Version)
TTITLE15=No Woman, No Cry
TTITLE16=Over And Over
TTITLE17=Let The Music Play
EXTD=
EXTT0=
EXTT1=
EXTT2=
EXTT3=
EXTT4=
EXTT5=
EXTT6=
EXTT7=
EXTT8=
EXTT9=
EXTT10=
EXTT11=
EXTT12=
EXTT13=
EXTT14=
EXTT15=
EXTT16=
EXTT17=
PLAYORDER=
